# ProBuilder 4.0.5
# https://unity3d.com/unity/features/worldbuilding/probuilder
# 8/19/2019 11:27:13 AM

mtllib ./Cube.mtl
o Cube

g Cube
v 1.3 9 19.9
v -1.6 9 19.9
v 1.3 14.9 19.9
v -1.6 14.9 19.9
v -1.6 9 -19.9
v 1.3 9 -19.9
v -1.6 14.9 -19.9
v 1.3 14.9 -19.9
v -1.6 9 -1.4
v -1.6 14.9 -1.4
v 1.3 9 -1.4
v 1.3 14.9 -1.4
v -1.6 9 1.5
v -1.6 14.9 1.5
v -20 9 1.4
v -20 9 -1.4
v -20 14.9 -1.4
v -20 14.9 1.4
v 1.3 14.9 1.5
v 1.3 9 1.5
v 20 14.9 1.4
v 20 14.9 -1.4
v 20 9 -1.4
v 20 9 1.4

vt 1.1 0.3000002
vt -1.8 0.3000002
vt 1.1 6.200001
vt -1.8 6.200001
vt 1.8 0.3000002
vt -1.1 0.3000002
vt 1.8 6.200001
vt -1.1 6.200001
vt -1.5 0.3000002
vt -20 0.3000002
vt -20 6.200001
vt -1.5 6.200001
vt 20 0.3000002
vt 1.5 0.3000002
vt 1.5 6.200001
vt 20 6.200001
vt 1.8 -1.5
vt 1.8 -20
vt -1.1 -20
vt -1.1 -1.5
vt 1.1 -20
vt -1.8 -20
vt -1.8 -1.5
vt 1.1 -1.5
vt 19.8 0.3000002
vt 1.4 0.3000002
vt 1.4 6.200001
vt 19.8 6.200001
vt 1.3 0.3000002
vt 1.3 6.200001
vt -19.8 0.3000002
vt -19.8 6.200001
vt -1.4 6.200001
vt -1.4 0.3000002
vt -1.3 6.200001
vt -1.3 0.3000002
vt -1.1 1.4
vt 1.8 1.4
vt -1.1 19.8
vt 1.8 19.8
vt -1.8 19.8
vt 1.1 19.8
vt 1.1 1.4
vt -1.8 1.4
vt -20.2 1.3
vt -20.2 -1.5
vt 20.2 0.3000002
vt 20.2 6.200001
vt -1.792365 6.200001
vt -1.792365 0.3000002
vt -20.19264 6.200001
vt -20.19264 0.3000002
vt 20.2 -1.5
vt 20.2 1.3
vt 1.092498 0.3000002
vt 1.092498 6.200001
vt 19.79276 0.3000002
vt 19.79276 6.200001
vt -19.8 1.3
vt -19.8 -1.5
vt 19.8 -1.5
vt 19.8 1.3

vn 0 0 1
vn 0 0 -1
vn -1 0 0
vn 1 0 0
vn 0 1 0
vn 0 -1 0
vn -0.005434704 0 0.9999852
vn 0.005347519 0 0.9999857

g Cube
usemtl ProBuilderDefault
f 3/3/1 4/4/1 2/2/1 1/1/1
f 7/7/2 8/8/2 6/6/2 5/5/2
f 10/12/3 7/11/3 5/10/3 9/9/3
f 6/13/4 8/16/4 12/15/4 11/14/4
f 10/17/5 12/20/5 8/19/5 7/18/5
f 5/22/6 6/21/6 11/24/6 9/23/6
f 4/28/3 14/27/3 13/26/3 2/25/3
f 18/30/3 17/12/3 16/9/3 15/29/3
f 20/34/4 19/33/4 3/32/4 1/31/4
f 23/14/4 22/15/4 21/35/4 24/36/4
f 14/38/5 19/37/5 12/20/5 10/17/5
f 4/40/5 3/39/5 19/37/5 14/38/5
f 13/44/6 20/43/6 1/42/6 2/41/6
f 11/24/6 20/43/6 13/44/6 9/23/6
f 15/45/6 16/46/6 9/23/6 13/44/6
f 16/47/2 17/48/2 10/7/2 9/5/2
f 18/51/7 15/52/7 13/50/7 14/49/7
f 17/53/5 18/54/5 14/38/5 10/17/5
f 24/57/8 21/58/8 19/56/8 20/55/8
f 21/59/5 22/60/5 12/20/5 19/37/5
f 22/32/2 23/31/2 11/6/2 12/8/2
f 23/61/6 24/62/6 20/43/6 11/24/6

